<svg width="48" height="48" viewBox="0 0 48 48" fill="none" xmlns="http://www.w3.org/2000/svg">
<mask id="mask0_160_7" style="mask-type:alpha" maskUnits="userSpaceOnUse" x="4" y="3" width="37" height="38">
<path fill-rule="evenodd" clip-rule="evenodd" d="M12.3734 28.8329C12.1003 29.2614 11.8304 29.6931 11.5636 30.128C11.3032 30.5661 11.0428 31.0043 10.7824 31.4424C10.5284 31.8837 10.2759 32.325 10.0251 32.7663C9.77737 33.214 9.53126 33.6601 9.28674 34.1046C9.0454 34.5555 8.80564 35.0065 8.56747 35.4574C8.33248 35.9115 8.09907 36.3656 7.86725 36.8197C7.63861 37.277 7.40996 37.7343 7.18132 38.1916C6.95585 38.6489 6.7288 39.1062 6.50016 39.5635C6.33503 39.5571 6.16831 39.5507 6 39.5443C6.33661 38.8056 6.6764 38.0685 7.01937 37.3329C7.36868 36.6006 7.72276 35.8715 8.0816 35.1456C8.4468 34.4228 8.81675 33.7017 9.19147 32.9822C9.57572 32.269 9.96473 31.5591 10.3585 30.8524C10.7618 30.1488 11.1715 29.4501 11.5875 28.7561C12.013 28.0654 12.4449 27.3762 12.8831 26.6887C13.334 26.0107 13.7945 25.3343 14.2645 24.6596C14.7472 23.9912 15.2426 23.3245 15.7507 22.6593C16.2778 21.9973 16.8193 21.3369 17.375 20.6782C17.9593 20.0226 18.5627 19.3654 19.1851 18.7067C19.8456 18.0511 20.5299 17.3939 21.2381 16.7351C22.0002 16.07 22.7926 15.4032 23.615 14.7348C24.5137 14.0633 25.4505 13.3869 26.4254 12.7058C30.0667 10.1617 26.2778 4.73626 27.4496 4.04871C28.5404 3.40866 32.413 9.29998 33.8135 8.62842C35.3282 7.97604 38.4482 6.68568 38.4482 6.68568C38.4482 6.68568 39.1884 6.31868 39.2056 6.59934C39.2229 6.88 37.1022 9.04 36.3954 10.48C35.7631 11.768 40.6366 14.9891 39.9297 16.1377C39.501 16.8344 33.9611 13.5518 32.5845 15.52C32.2225 16.0376 31.8462 17.501 31.6175 18.3901C31.4588 19.2375 31.3317 20.0674 31.2365 20.8796C31.192 21.6567 31.1698 22.4194 31.1698 23.1678C31.2079 23.8841 31.2603 24.5892 31.327 25.2832C31.4222 25.9515 31.5286 26.6087 31.6461 27.2547C31.7795 27.8815 31.9224 28.4987 32.0748 29.1063C32.2368 29.6979 32.4067 30.2815 32.5845 30.8571C32.7687 31.42 32.9592 31.9764 33.1561 32.5265C33.3594 33.0637 33.5658 33.5962 33.7754 34.1238C33.9945 34.6387 34.2152 35.1504 34.4375 35.6588C34.6661 36.1577 34.8995 36.6518 35.1377 37.1411C35.379 37.6239 35.622 38.1036 35.8665 38.5801C36.1205 39.0534 36.373 39.5267 36.6239 40C35.6521 39.984 34.6836 39.9744 33.7182 39.9712C32.7655 39.9712 31.824 39.9696 30.8935 39.9664C30.8173 39.6147 30.7395 39.2645 30.6601 38.9159C30.5744 38.5705 30.487 38.2268 30.3981 37.8846C30.3028 37.5424 30.2076 37.2002 30.1123 36.858C30.0139 36.5159 29.9138 36.1737 29.8122 35.8315C29.7106 35.4829 29.609 35.1344 29.5074 34.7858C29.4057 34.434 29.3041 34.0807 29.2025 33.7257C29.1009 33.3675 28.9993 33.0062 28.8976 32.6416C28.7992 32.2738 28.7008 31.9029 28.6023 31.5287C27.9354 31.3944 27.2686 31.2617 26.6017 31.1306C25.9348 31.0059 25.2663 30.8811 24.5963 30.7564C23.9262 30.6381 23.2562 30.5198 22.5861 30.4014C21.9129 30.2895 21.2397 30.1776 20.5665 30.0657C19.8901 29.9569 19.2137 29.8498 18.5373 29.7443C17.8609 29.6387 17.1813 29.5348 16.4985 29.4325C15.8158 29.3301 15.1298 29.2294 14.4407 29.1303C13.7516 29.0279 13.0594 28.9272 12.3639 28.8281C12.3639 28.8281 12.3671 28.8297 12.3734 28.8329ZM28.5404 31.0826C28.3848 30.4526 28.2339 29.8146 28.0879 29.1686C27.9513 28.5035 27.8211 27.8303 27.6973 27.1492C27.5861 26.4488 27.4829 25.7373 27.3876 25.0146C27.3178 24.2726 27.2574 23.5179 27.2066 22.7504C27.1908 21.9573 27.1908 21.1515 27.2066 20.3328C27.2638 19.4886 27.3448 18.6283 27.4496 17.7521C27.6147 16.8471 27.8116 15.9261 28.0402 14.9891C28.3419 14.0233 28.6896 13.0463 29.0834 12.0582C27.9878 12.7393 26.9367 13.4205 25.93 14.1017C25.0059 14.7764 24.1184 15.4496 23.2673 16.1211C22.4766 16.7895 21.7129 17.4563 20.9761 18.1214C20.2902 18.7866 19.6233 19.4518 18.9755 20.1169C18.3658 20.7821 17.7703 21.4505 17.1892 22.122C16.6367 22.7936 16.0952 23.4684 15.5649 24.1463C15.0568 24.8307 14.5566 25.5166 14.0644 26.2042C13.5881 26.9013 13.1197 27.6001 12.6592 28.3004C13.342 28.4027 14.0247 28.5051 14.7075 28.6074C15.3807 28.7097 16.0539 28.8137 16.7272 28.9192C17.3972 29.0247 18.0657 29.1319 18.7326 29.2406C19.3963 29.3493 20.0584 29.4597 20.7189 29.5716C21.3762 29.6867 22.0336 29.8034 22.6909 29.9218C23.3451 30.0433 23.9993 30.1664 24.6535 30.2911C25.3045 30.4158 25.9554 30.5438 26.6064 30.6749C27.2543 30.8092 27.9005 30.9467 28.5451 31.0874C28.542 31.0842 28.5404 31.0826 28.5404 31.0826Z" fill="white"/>
<path fill-rule="evenodd" clip-rule="evenodd" d="M12.3734 28.8329C12.1003 29.2614 11.8304 29.6931 11.5636 30.128C11.3032 30.5661 11.0428 31.0043 10.7824 31.4424C10.5284 31.8837 10.2759 32.325 10.0251 32.7663C9.77737 33.214 9.53126 33.6601 9.28674 34.1046C9.0454 34.5555 8.80564 35.0065 8.56747 35.4574C8.33248 35.9115 8.09907 36.3656 7.86725 36.8197C7.63861 37.277 7.40996 37.7343 7.18132 38.1916C6.95585 38.6489 6.7288 39.1062 6.50016 39.5635C6.33503 39.5571 6.16831 39.5507 6 39.5443C6.33661 38.8056 6.6764 38.0685 7.01937 37.3329C7.36868 36.6006 7.72276 35.8715 8.0816 35.1456C8.4468 34.4228 8.81675 33.7017 9.19147 32.9822C9.57572 32.269 9.96473 31.5591 10.3585 30.8524C10.7618 30.1488 11.1715 29.4501 11.5875 28.7561C12.013 28.0654 12.4449 27.3762 12.8831 26.6887C13.334 26.0107 13.7945 25.3343 14.2645 24.6596C14.7472 23.9912 15.2426 23.3245 15.7507 22.6593C16.2778 21.9973 16.8193 21.3369 17.375 20.6782C17.9593 20.0226 18.5627 19.3654 19.1851 18.7067C19.8456 18.0511 20.5299 17.3939 21.2381 16.7351C22.0002 16.07 22.7926 15.4032 23.615 14.7348C24.5137 14.0633 25.4505 13.3869 26.4254 12.7058C30.0667 10.1617 26.2778 4.73626 27.4496 4.04871C28.5404 3.40866 32.413 9.29998 33.8135 8.62842C35.3282 7.97604 38.4482 6.68568 38.4482 6.68568C38.4482 6.68568 39.1884 6.31868 39.2056 6.59934C39.2229 6.88 37.1022 9.04 36.3954 10.48C35.7631 11.768 40.6366 14.9891 39.9297 16.1377C39.501 16.8344 33.9611 13.5518 32.5845 15.52C32.2225 16.0376 31.8462 17.501 31.6175 18.3901C31.4588 19.2375 31.3317 20.0674 31.2365 20.8796C31.192 21.6567 31.1698 22.4194 31.1698 23.1678C31.2079 23.8841 31.2603 24.5892 31.327 25.2832C31.4222 25.9515 31.5286 26.6087 31.6461 27.2547C31.7795 27.8815 31.9224 28.4987 32.0748 29.1063C32.2368 29.6979 32.4067 30.2815 32.5845 30.8571C32.7687 31.42 32.9592 31.9764 33.1561 32.5265C33.3594 33.0637 33.5658 33.5962 33.7754 34.1238C33.9945 34.6387 34.2152 35.1504 34.4375 35.6588C34.6661 36.1577 34.8995 36.6518 35.1377 37.1411C35.379 37.6239 35.622 38.1036 35.8665 38.5801C36.1205 39.0534 36.373 39.5267 36.6239 40C35.6521 39.984 34.6836 39.9744 33.7182 39.9712C32.7655 39.9712 31.824 39.9696 30.8935 39.9664C30.8173 39.6147 30.7395 39.2645 30.6601 38.9159C30.5744 38.5705 30.487 38.2268 30.3981 37.8846C30.3028 37.5424 30.2076 37.2002 30.1123 36.858C30.0139 36.5159 29.9138 36.1737 29.8122 35.8315C29.7106 35.4829 29.609 35.1344 29.5074 34.7858C29.4057 34.434 29.3041 34.0807 29.2025 33.7257C29.1009 33.3675 28.9993 33.0062 28.8976 32.6416C28.7992 32.2738 28.7008 31.9029 28.6023 31.5287C27.9354 31.3944 27.2686 31.2617 26.6017 31.1306C25.9348 31.0059 25.2663 30.8811 24.5963 30.7564C23.9262 30.6381 23.2562 30.5198 22.5861 30.4014C21.9129 30.2895 21.2397 30.1776 20.5665 30.0657C19.8901 29.9569 19.2137 29.8498 18.5373 29.7443C17.8609 29.6387 17.1813 29.5348 16.4985 29.4325C15.8158 29.3301 15.1298 29.2294 14.4407 29.1303C13.7516 29.0279 13.0594 28.9272 12.3639 28.8281C12.3639 28.8281 12.3671 28.8297 12.3734 28.8329ZM28.5404 31.0826C28.3848 30.4526 28.2339 29.8146 28.0879 29.1686C27.9513 28.5035 27.8211 27.8303 27.6973 27.1492C27.5861 26.4488 27.4829 25.7373 27.3876 25.0146C27.3178 24.2726 27.2574 23.5179 27.2066 22.7504C27.1908 21.9573 27.1908 21.1515 27.2066 20.3328C27.2638 19.4886 27.3448 18.6283 27.4496 17.7521C27.6147 16.8471 27.8116 15.9261 28.0402 14.9891C28.3419 14.0233 28.6896 13.0463 29.0834 12.0582C27.9878 12.7393 26.9367 13.4205 25.93 14.1017C25.0059 14.7764 24.1184 15.4496 23.2673 16.1211C22.4766 16.7895 21.7129 17.4563 20.9761 18.1214C20.2902 18.7866 19.6233 19.4518 18.9755 20.1169C18.3658 20.7821 17.7703 21.4505 17.1892 22.122C16.6367 22.7936 16.0952 23.4684 15.5649 24.1463C15.0568 24.8307 14.5566 25.5166 14.0644 26.2042C13.5881 26.9013 13.1197 27.6001 12.6592 28.3004C13.342 28.4027 14.0247 28.5051 14.7075 28.6074C15.3807 28.7097 16.0539 28.8137 16.7272 28.9192C17.3972 29.0247 18.0657 29.1319 18.7326 29.2406C19.3963 29.3493 20.0584 29.4597 20.7189 29.5716C21.3762 29.6867 22.0336 29.8034 22.6909 29.9218C23.3451 30.0433 23.9993 30.1664 24.6535 30.2911C25.3045 30.4158 25.9554 30.5438 26.6064 30.6749C27.2543 30.8092 27.9005 30.9467 28.5451 31.0874C28.542 31.0842 28.5404 31.0826 28.5404 31.0826Z" fill="white"/>
<path d="M12.3734 28.8329C12.1003 29.2614 11.8304 29.6931 11.5636 30.128C11.3032 30.5661 11.0428 31.0043 10.7824 31.4424C10.5284 31.8837 10.2759 32.325 10.0251 32.7663C9.77737 33.214 9.53126 33.6601 9.28674 34.1046C9.0454 34.5555 8.80564 35.0065 8.56747 35.4574C8.33248 35.9115 8.09907 36.3656 7.86725 36.8197C7.63861 37.277 7.40996 37.7343 7.18132 38.1916C6.95585 38.6489 6.7288 39.1062 6.50016 39.5635C6.33503 39.5571 6.16831 39.5507 6 39.5443C6.33661 38.8056 6.6764 38.0685 7.01937 37.3329C7.36868 36.6006 7.72276 35.8715 8.0816 35.1456C8.4468 34.4228 8.81675 33.7017 9.19147 32.9822C9.57572 32.269 9.96473 31.5591 10.3585 30.8524C10.7618 30.1488 11.1715 29.4501 11.5875 28.7561C12.013 28.0654 12.4449 27.3762 12.8831 26.6887C13.334 26.0107 13.7945 25.3343 14.2645 24.6596C14.7472 23.9912 15.2426 23.3245 15.7507 22.6593C16.2778 21.9973 16.8193 21.3369 17.375 20.6782C17.9593 20.0226 18.5627 19.3654 19.1851 18.7067C19.8456 18.0511 20.5299 17.3939 21.2381 16.7351C22.0002 16.07 22.7926 15.4032 23.615 14.7348C24.5137 14.0633 25.4505 13.3869 26.4254 12.7058C30.0667 10.1617 26.2778 4.73626 27.4496 4.04871C28.5404 3.40866 32.413 9.29998 33.8135 8.62842C35.3282 7.97604 38.4482 6.68568 38.4482 6.68568C38.4482 6.68568 39.1884 6.31868 39.2056 6.59934C39.2229 6.88 37.1022 9.04 36.3954 10.48C35.7631 11.768 40.6366 14.9891 39.9297 16.1377C39.501 16.8344 33.9611 13.5518 32.5845 15.52C32.2225 16.0376 31.8462 17.501 31.6175 18.3901C31.4588 19.2375 31.3317 20.0674 31.2365 20.8796C31.192 21.6567 31.1698 22.4194 31.1698 23.1678C31.2079 23.8841 31.2603 24.5892 31.327 25.2832C31.4222 25.9515 31.5286 26.6087 31.6461 27.2547C31.7795 27.8815 31.9224 28.4987 32.0748 29.1063C32.2368 29.6979 32.4067 30.2815 32.5845 30.8571C32.7687 31.42 32.9592 31.9764 33.1561 32.5265C33.3594 33.0637 33.5658 33.5962 33.7754 34.1238C33.9945 34.6387 34.2152 35.1504 34.4375 35.6588C34.6661 36.1577 34.8995 36.6518 35.1377 37.1411C35.379 37.6239 35.622 38.1036 35.8665 38.5801C36.1205 39.0534 36.373 39.5267 36.6239 40C35.6521 39.984 34.6836 39.9744 33.7182 39.9712C32.7655 39.9712 31.824 39.9696 30.8935 39.9664C30.8173 39.6147 30.7395 39.2645 30.6601 38.9159C30.5744 38.5705 30.487 38.2268 30.3981 37.8846C30.3028 37.5424 30.2076 37.2002 30.1123 36.858C30.0139 36.5159 29.9138 36.1737 29.8122 35.8315C29.7106 35.4829 29.609 35.1344 29.5074 34.7858C29.4057 34.434 29.3041 34.0807 29.2025 33.7257C29.1009 33.3675 28.9993 33.0062 28.8976 32.6416C28.7992 32.2738 28.7008 31.9029 28.6023 31.5287C27.9354 31.3944 27.2686 31.2617 26.6017 31.1306C25.9348 31.0059 25.2663 30.8811 24.5963 30.7564C23.9262 30.6381 23.2562 30.5198 22.5861 30.4014C21.9129 30.2895 21.2397 30.1776 20.5665 30.0657C19.8901 29.9569 19.2137 29.8498 18.5373 29.7443C17.8609 29.6387 17.1813 29.5348 16.4985 29.4325C15.8158 29.3301 15.1298 29.2294 14.4407 29.1303C13.7516 29.0279 13.0594 28.9272 12.3639 28.8281C12.3639 28.8281 12.3671 28.8297 12.3734 28.8329ZM28.5404 31.0826C28.3848 30.4526 28.2339 29.8146 28.0879 29.1686C27.9513 28.5035 27.8211 27.8303 27.6973 27.1492C27.5861 26.4488 27.4829 25.7373 27.3876 25.0146C27.3178 24.2726 27.2574 23.5179 27.2066 22.7504C27.1908 21.9573 27.1908 21.1515 27.2066 20.3328C27.2638 19.4886 27.3448 18.6283 27.4496 17.7521C27.6147 16.8471 27.8116 15.9261 28.0402 14.9891C28.3419 14.0233 28.6896 13.0463 29.0834 12.0582C27.9878 12.7393 26.9367 13.4205 25.93 14.1017C25.0059 14.7764 24.1184 15.4496 23.2673 16.1211C22.4766 16.7895 21.7129 17.4563 20.9761 18.1214C20.2902 18.7866 19.6233 19.4518 18.9755 20.1169C18.3658 20.7821 17.7703 21.4505 17.1892 22.122C16.6367 22.7936 16.0952 23.4684 15.5649 24.1463C15.0568 24.8307 14.5566 25.5166 14.0644 26.2042C13.5881 26.9013 13.1197 27.6001 12.6592 28.3004C13.342 28.4027 14.0247 28.5051 14.7075 28.6074C15.3807 28.7097 16.0539 28.8137 16.7272 28.9192C17.3972 29.0247 18.0657 29.1319 18.7326 29.2406C19.3963 29.3493 20.0584 29.4597 20.7189 29.5716C21.3762 29.6867 22.0336 29.8034 22.6909 29.9218C23.3451 30.0433 23.9993 30.1664 24.6535 30.2911C25.3045 30.4158 25.9554 30.5438 26.6064 30.6749C27.2543 30.8092 27.9005 30.9467 28.5451 31.0874C28.542 31.0842 28.5404 31.0826 28.5404 31.0826Z" stroke="white" stroke-width="1.5"/>
</mask>
<g mask="url(#mask0_160_7)">
<g clip-path="url(#clip0_160_7)">
<rect width="68" height="68" transform="translate(-10 -10)" fill="url(#paint0_linear_160_7)"/>
<g filter="url(#filter0_f_160_7)">
<path d="M2.48032 5.28683L3.5 30L26.1716 47.0328L6.08908 58.4298L-17.6022 16.6839L2.48032 5.28683Z" fill="#FFB83D"/>
</g>
</g>
</g>
<defs>
<filter id="filter0_f_160_7" x="-37.4022" y="-14.5132" width="83.3738" height="92.743" filterUnits="userSpaceOnUse" color-interpolation-filters="sRGB">
<feFlood flood-opacity="0" result="BackgroundImageFix"/>
<feBlend mode="normal" in="SourceGraphic" in2="BackgroundImageFix" result="shape"/>
<feGaussianBlur stdDeviation="9.9" result="effect1_foregroundBlur_160_7"/>
</filter>
<linearGradient id="paint0_linear_160_7" x1="66.5833" y1="64.4583" x2="-23.3073" y2="-15.2357" gradientUnits="userSpaceOnUse">
<stop stop-color="#728AFF"/>
<stop offset="0.0001" stop-color="#FF7354"/>
<stop offset="1" stop-color="#FF623F"/>
</linearGradient>
<clipPath id="clip0_160_7">
<rect width="68" height="68" fill="white" transform="translate(-10 -10)"/>
</clipPath>
</defs>
</svg>
